<?xml version="1.0" encoding="UTF-8"?>
<svg id="Layer_1" data-name="Layer 1" xmlns="http://www.w3.org/2000/svg" viewBox="0 0 1920 1080">
  <defs>
    <style>
      .cls-1 {
        letter-spacing: -.04em;
      }

      .cls-2 {
        letter-spacing: 0em;
      }

      .cls-3 {
        letter-spacing: 0em;
      }

      .cls-4 {
        letter-spacing: -.02em;
      }

      .cls-5 {
        letter-spacing: .02em;
      }

      .cls-6 {
        letter-spacing: .02em;
      }

      .cls-7 {
        letter-spacing: 0em;
      }

      .cls-8 {
        letter-spacing: -.04em;
      }

      .cls-9 {
        letter-spacing: 0em;
      }

      .cls-10 {
        letter-spacing: .02em;
      }

      .cls-11 {
        letter-spacing: -.05em;
      }

      .cls-12 {
        letter-spacing: 0em;
      }

      .cls-13 {
        letter-spacing: 0em;
      }

      .cls-14 {
        letter-spacing: 0em;
      }

      .cls-15 {
        letter-spacing: 0em;
      }

      .cls-16 {
        letter-spacing: -.06em;
      }

      .cls-17 {
        letter-spacing: -.04em;
      }

      .cls-18 {
        letter-spacing: 0em;
      }

      .cls-19 {
        letter-spacing: .03em;
      }

      .cls-20 {
        letter-spacing: 0em;
      }

      .cls-21 {
        letter-spacing: -.02em;
      }

      .cls-22 {
        letter-spacing: -.01em;
      }

      .cls-23 {
        letter-spacing: -.04em;
      }

      .cls-24 {
        letter-spacing: 0em;
      }

      .cls-25 {
        letter-spacing: 0em;
      }

      .cls-26 {
        letter-spacing: 0em;
      }

      .cls-27 {
        letter-spacing: 0em;
      }

      .cls-28 {
        letter-spacing: 0em;
      }

      .cls-29 {
        letter-spacing: -.02em;
      }

      .cls-30 {
        letter-spacing: 0em;
      }

      .cls-31 {
        letter-spacing: -.02em;
      }

      .cls-32 {
        letter-spacing: -.02em;
      }

      .cls-33 {
        letter-spacing: 0em;
      }

      .cls-34 {
        font-family: Montserrat-ExtraBold, Montserrat;
        font-size: 141.44px;
        font-weight: 700;
        opacity: .03;
      }

      .cls-35 {
        letter-spacing: -.06em;
      }

      .cls-36 {
        letter-spacing: 0em;
      }

      .cls-37 {
        letter-spacing: 0em;
      }

      .cls-38 {
        letter-spacing: 0em;
      }

      .cls-39 {
        letter-spacing: 0em;
      }

      .cls-40 {
        letter-spacing: .02em;
      }

      .cls-41 {
        letter-spacing: 0em;
      }

      .cls-42 {
        letter-spacing: -.05em;
      }

      .cls-43 {
        letter-spacing: 0em;
      }

      .cls-44 {
        letter-spacing: 0em;
      }

      .cls-45 {
        letter-spacing: 0em;
      }

      .cls-46 {
        letter-spacing: -.02em;
      }

      .cls-47 {
        letter-spacing: .02em;
      }

      .cls-48 {
        letter-spacing: 0em;
      }
    </style>
  </defs>
  <text class="cls-34" transform="translate(-184.64 77.83)"><tspan x="0" y="0">6</tspan><tspan class="cls-43" x="91.79" y="0">3</tspan><tspan class="cls-39" x="176.37" y="0">2</tspan><tspan class="cls-36" x="260.95" y="0">0</tspan><tspan class="cls-11" x="357.56" y="0">7</tspan><tspan x="439.87" y="0">-9</tspan><tspan class="cls-23" x="586.54" y="0">4</tspan><tspan class="cls-42" x="680.17" y="0">7</tspan><tspan class="cls-20" x="762.49" y="0">+</tspan><tspan class="cls-48" x="848.91" y="0">0</tspan><tspan class="cls-45" x="945.8" y="0">4</tspan><tspan x="1044.38" y="0">3=</tspan><tspan class="cls-25" x="1215.8" y="0">6</tspan><tspan class="cls-29" x="1307.31" y="0">7</tspan><tspan x="1393.87" y="0">62</tspan><tspan class="cls-40" x="1570.38" y="0">*</tspan><tspan class="cls-21" x="1636.86" y="0">7</tspan><tspan x="1723.98" y="0">86</tspan><tspan class="cls-14" x="1910.4" y="0">4</tspan><tspan x="2009.12" y="0">9</tspan><tspan x="0" y="169.73">1216</tspan><tspan class="cls-4" x="291.08" y="169.73">4</tspan><tspan class="cls-6" x="387.26" y="169.73">*</tspan><tspan x="454.16" y="169.73">23</tspan><tspan class="cls-2" x="624.16" y="169.73">9</tspan><tspan class="cls-29" x="716.24" y="169.73">-</tspan><tspan class="cls-3" x="768.29" y="169.73">3</tspan><tspan x="852.87" y="169.73">29</tspan><tspan class="cls-36" x="1029.38" y="169.73">0</tspan><tspan class="cls-11" x="1125.98" y="169.73">7</tspan><tspan class="cls-37" x="1208.3" y="169.73">+</tspan><tspan class="cls-31" x="1293.02" y="169.73">7</tspan><tspan x="1380.15" y="169.73">58</tspan><tspan class="cls-45" x="1560.62" y="169.73">4</tspan><tspan x="1659.21" y="169.73">3</tspan><tspan class="cls-2" x="1744.49" y="169.73">9</tspan><tspan class="cls-37" x="1836.57" y="169.73">-</tspan><tspan class="cls-16" x="1890.03" y="169.73">7</tspan><tspan class="cls-45" x="1970.23" y="169.73">4</tspan><tspan class="cls-43" x="2068.81" y="169.73">3</tspan><tspan x="2153.39" y="169.73">2</tspan><tspan class="cls-41" x="2238.11" y="169.73">3</tspan><tspan x="2322.7" y="169.73">2</tspan><tspan x="0" y="339.45">1</tspan><tspan class="cls-17" x="57.28" y="339.45">7</tspan><tspan class="cls-29" x="141.44" y="339.45">/</tspan><tspan x="197.31" y="339.45">6</tspan><tspan class="cls-2" x="289.1" y="339.45">9</tspan><tspan x="381.17" y="339.45">+</tspan><tspan class="cls-22" x="467.31" y="339.45">5</tspan><tspan class="cls-31" x="551.61" y="339.45">7</tspan><tspan x="638.73" y="339.45">8-</tspan><tspan class="cls-36" x="788.23" y="339.45">9</tspan><tspan class="cls-31" x="879.74" y="339.45">7</tspan><tspan x="966.87" y="339.45">56</tspan><tspan class="cls-13" x="1144.51" y="339.45">3</tspan><tspan class="cls-5" x="1228.81" y="339.45">7</tspan><tspan class="cls-2" x="1321.31" y="339.45">*</tspan><tspan class="cls-25" x="1385.66" y="339.45">6</tspan><tspan class="cls-31" x="1477.17" y="339.45">7</tspan><tspan x="1564.29" y="339.45">5</tspan><tspan class="cls-30" x="1650.15" y="339.45">4</tspan><tspan class="cls-22" x="1749.01" y="339.45">5</tspan><tspan class="cls-9" x="1833.31" y="339.45">7</tspan><tspan x="1924.11" y="339.45">1</tspan><tspan class="cls-14" x="1981.4" y="339.45">0</tspan><tspan class="cls-29" x="2078" y="339.45">7</tspan><tspan class="cls-27" x="2164.56" y="339.45">6</tspan><tspan x="0" y="509.18">859</tspan><tspan class="cls-7" x="272.27" y="509.18">4</tspan><tspan class="cls-33" x="370.85" y="509.18">3</tspan><tspan class="cls-4" x="455.15" y="509.18">7</tspan><tspan x="541.71" y="509.18">6=</tspan><tspan class="cls-24" x="719.64" y="509.18">7</tspan><tspan x="808.17" y="509.18">36546890</tspan><tspan class="cls-38" x="1545.2" y="509.18">4</tspan><tspan class="cls-44" x="1645.62" y="509.18">8</tspan><tspan class="cls-27" x="1740.53" y="509.18">*8-90</tspan><tspan x="0" y="678.91">34</tspan><tspan class="cls-25" x="184.29" y="678.91">0</tspan><tspan class="cls-42" x="280.9" y="678.91">7</tspan><tspan x="363.21" y="678.91">-8</tspan><tspan class="cls-8" x="512.71" y="678.91">4</tspan><tspan class="cls-31" x="606.34" y="678.91">7</tspan><tspan x="693.47" y="678.91">8</tspan><tspan class="cls-25" x="788.09" y="678.91">4</tspan><tspan x="886.81" y="678.91">9</tspan><tspan class="cls-36" x="978.61" y="678.91">0</tspan><tspan class="cls-31" x="1075.21" y="678.91">7</tspan><tspan x="1162.33" y="678.91">89=</tspan><tspan class="cls-35" x="1434.88" y="678.91">7</tspan><tspan class="cls-30" x="1515.08" y="678.91">4</tspan><tspan x="1613.95" y="678.91">5656</tspan><tspan class="cls-30" x="1969.23" y="678.91">2</tspan><tspan x="2053.82" y="678.91">7</tspan><tspan x="0" y="848.63">7</tspan><tspan class="cls-36" x="89.39" y="848.63">2</tspan><tspan x="173.83" y="848.63">+</tspan><tspan class="cls-28" x="259.96" y="848.63">9</tspan><tspan class="cls-33" x="350.34" y="848.63">3</tspan><tspan class="cls-1" x="434.64" y="848.63">7</tspan><tspan class="cls-19" x="518.79" y="848.63">/</tspan><tspan x="581.73" y="848.63">196</tspan><tspan class="cls-33" x="822.6" y="848.63">3</tspan><tspan class="cls-47" x="906.9" y="848.63">7</tspan><tspan class="cls-10" x="999.4" y="848.63">*</tspan><tspan x="1066.72" y="848.63">95</tspan><tspan class="cls-25" x="1244.36" y="848.63">6</tspan><tspan class="cls-31" x="1335.87" y="848.63">7</tspan><tspan x="1423" y="848.63">83</tspan><tspan class="cls-12" x="1602.91" y="848.63">6</tspan><tspan x="1695.4" y="848.63">-8</tspan><tspan class="cls-26" x="1844.9" y="848.63">9</tspan><tspan x="1935.56" y="848.63">1</tspan><tspan class="cls-46" x="1992.84" y="848.63">4</tspan><tspan x="2088.32" y="848.63">1</tspan><tspan x="0" y="1018.36">2</tspan><tspan class="cls-33" x="84.72" y="1018.36">3</tspan><tspan class="cls-32" x="169.02" y="1018.36">7</tspan><tspan class="cls-15" x="256.15" y="1018.36">858+84</tspan><tspan class="cls-4" x="811" y="1018.36">4</tspan><tspan class="cls-6" x="907.18" y="1018.36">*</tspan><tspan class="cls-43" x="974.08" y="1018.36">2</tspan><tspan x="1058.1" y="1018.36">463</tspan><tspan class="cls-37" x="1334.18" y="1018.36">+</tspan><tspan class="cls-21" x="1418.9" y="1018.36">7</tspan><tspan class="cls-18" x="1506.03" y="1018.36">8463/28</tspan></text>
</svg>